<?xml version="1.0" encoding="utf-8"?>
<!-- Generator: Adobe Illustrator 14.0.0, SVG Export Plug-In . SVG Version: 6.00 Build 43363)  -->
<!DOCTYPE svg PUBLIC "-//W3C//DTD SVG 1.1//EN" "http://www.w3.org/Graphics/SVG/1.1/DTD/svg11.dtd">
<svg version="1.1" id="圖層_1" xmlns="http://www.w3.org/2000/svg" xmlns:xlink="http://www.w3.org/1999/xlink" x="0px" y="0px"
	 width="5px" height="57px" viewBox="-1 0 5 57" enable-background="new -1 0 5 57" xml:space="preserve">
<g>
	<rect x="0" fill="#505050" width="3" height="3"/>
	<rect x="0" y="6" fill="#505050" width="3" height="3"/>
	<rect x="0" y="12" fill="#505050" width="3" height="3"/>
	<rect x="0" y="18" fill="#505050" width="3" height="3"/>
	<rect x="0" y="24" fill="#505050" width="3" height="3"/>
	<rect x="0" y="30" fill="#505050" width="3" height="3"/>
	<rect x="0" y="36" fill="#505050" width="3" height="3"/>
	<rect x="0" y="42" fill="#505050" width="3" height="3"/>
	<rect x="0" y="48" fill="#505050" width="3" height="3"/>
	<rect x="0" y="54" fill="#505050" width="3" height="3"/>
</g>
<g>
	<rect x="0" fill="#505050" width="3" height="3"/>
	<rect x="0" y="6" fill="#505050" width="3" height="3"/>
	<rect x="0" y="12" fill="#505050" width="3" height="3"/>
	<rect x="0" y="18" fill="#505050" width="3" height="3"/>
	<rect x="0" y="24" fill="#505050" width="3" height="3"/>
	<rect x="0" y="30" fill="#505050" width="3" height="3"/>
	<rect x="0" y="36" fill="#505050" width="3" height="3"/>
	<rect x="0" y="42" fill="#505050" width="3" height="3"/>
	<rect x="0" y="48" fill="#505050" width="3" height="3"/>
	<rect x="0" y="54" fill="#505050" width="3" height="3"/>
</g>
</svg>
