<?xml version="1.0" encoding="utf-8"?>
<!-- Generator: Adobe Illustrator 14.0.0, SVG Export Plug-In . SVG Version: 6.00 Build 43363)  -->
<!DOCTYPE svg PUBLIC "-//W3C//DTD SVG 1.1//EN" "http://www.w3.org/Graphics/SVG/1.1/DTD/svg11.dtd">
<svg version="1.1" id="圖層_1" xmlns="http://www.w3.org/2000/svg" xmlns:xlink="http://www.w3.org/1999/xlink" x="0px" y="0px"
	 width="57px" height="5px" viewBox="-27 26 57 5" enable-background="new -27 26 57 5" xml:space="preserve">
<g>
	<rect x="27" y="27" fill="#505050" width="3" height="3"/>
	<rect x="21" y="27" fill="#505050" width="3" height="3"/>
	<rect x="15" y="27" fill="#505050" width="3" height="3"/>
	<rect x="9" y="27" fill="#505050" width="3" height="3"/>
	<rect x="3" y="27" fill="#505050" width="3" height="3"/>
	<rect x="-3" y="27" fill="#505050" width="3" height="3"/>
	<rect x="-9" y="27" fill="#505050" width="3" height="3"/>
	<rect x="-15" y="27" fill="#505050" width="3" height="3"/>
	<rect x="-21" y="27" fill="#505050" width="3" height="3"/>
	<rect x="-27" y="27" fill="#505050" width="3" height="3"/>
</g>
<g>
	<rect x="27" y="27" fill="#505050" width="3" height="3"/>
	<rect x="21" y="27" fill="#505050" width="3" height="3"/>
	<rect x="15" y="27" fill="#505050" width="3" height="3"/>
	<rect x="9" y="27" fill="#505050" width="3" height="3"/>
	<rect x="3" y="27" fill="#505050" width="3" height="3"/>
	<rect x="-3" y="27" fill="#505050" width="3" height="3"/>
	<rect x="-9" y="27" fill="#505050" width="3" height="3"/>
	<rect x="-15" y="27" fill="#505050" width="3" height="3"/>
	<rect x="-21" y="27" fill="#505050" width="3" height="3"/>
	<rect x="-27" y="27" fill="#505050" width="3" height="3"/>
</g>
</svg>
