<?xml version="1.0" encoding="utf-8"?>
<!-- Generator: Adobe Illustrator 15.1.0, SVG Export Plug-In . SVG Version: 6.00 Build 0)  -->
<!DOCTYPE svg PUBLIC "-//W3C//DTD SVG 1.1//EN" "http://www.w3.org/Graphics/SVG/1.1/DTD/svg11.dtd">
<svg version="1.1" id="圖層_1" xmlns="http://www.w3.org/2000/svg" xmlns:xlink="http://www.w3.org/1999/xlink" x="0px" y="0px"
	 width="23px" height="23px" viewBox="0 0 23 23" enable-background="new 0 0 23 23" xml:space="preserve">
<g>
	<g>
		<line fill="none" stroke="#C8C8C8" stroke-miterlimit="10" x1="5" y1="7.5" x2="18" y2="7.5"/>
		<polyline fill="none" stroke="#C8C8C8" stroke-miterlimit="10" points="8.5,7 8.5,4.5 14.5,4.5 14.5,7 		"/>
		<polyline fill="none" stroke="#C8C8C8" stroke-miterlimit="10" points="15.5,7 15.5,18.5 7.5,18.5 7.5,7 		"/>
		<line fill="none" stroke="#C8C8C8" stroke-miterlimit="10" x1="10.5" y1="9" x2="10.5" y2="16"/>
		<line fill="none" stroke="#C8C8C8" stroke-miterlimit="10" x1="12.5" y1="9" x2="12.5" y2="16"/>
	</g>
	<g>
		<line fill="none" stroke="#C8C8C8" stroke-miterlimit="10" x1="5" y1="7.5" x2="18" y2="7.5"/>
		<polyline fill="none" stroke="#C8C8C8" stroke-miterlimit="10" points="8.5,7 8.5,4.5 14.5,4.5 14.5,7 		"/>
		<polyline fill="none" stroke="#C8C8C8" stroke-miterlimit="10" points="15.5,7 15.5,18.5 7.5,18.5 7.5,7 		"/>
		<line fill="none" stroke="#C8C8C8" stroke-miterlimit="10" x1="10.5" y1="9" x2="10.5" y2="16"/>
		<line fill="none" stroke="#C8C8C8" stroke-miterlimit="10" x1="12.5" y1="9" x2="12.5" y2="16"/>
	</g>
</g>
</svg>
