<?xml version="1.0" encoding="utf-8"?>
<!-- Generator: Adobe Illustrator 15.1.0, SVG Export Plug-In . SVG Version: 6.00 Build 0)  -->
<!DOCTYPE svg PUBLIC "-//W3C//DTD SVG 1.1//EN" "http://www.w3.org/Graphics/SVG/1.1/DTD/svg11.dtd">
<svg version="1.1" id="圖層_1" xmlns="http://www.w3.org/2000/svg" xmlns:xlink="http://www.w3.org/1999/xlink" x="0px" y="0px"
	 width="18px" height="18px" viewBox="0 0 18 18" enable-background="new 0 0 18 18" xml:space="preserve">
<g>
	<circle fill="#464646" cx="9" cy="9" r="3"/>
	<g>
		<path fill="#464646" d="M9,4c2.757,0,5,2.243,5,5s-2.243,5-5,5s-5-2.243-5-5S6.243,4,9,4 M9,3C5.687,3,3,5.687,3,9
			c0,3.314,2.687,6,6,6c3.314,0,6-2.686,6-6C15,5.687,12.314,3,9,3L9,3z"/>
	</g>
</g>
<g>
	<circle fill="#464646" cx="9" cy="9" r="3"/>
	<g>
		<path fill="#464646" d="M9,4c2.757,0,5,2.243,5,5s-2.243,5-5,5s-5-2.243-5-5S6.243,4,9,4 M9,3C5.687,3,3,5.687,3,9
			c0,3.314,2.687,6,6,6c3.314,0,6-2.686,6-6C15,5.687,12.314,3,9,3L9,3z"/>
	</g>
</g>
</svg>
